<?xml version="1.0" encoding="utf-8"?>
<!-- Generator: Adobe Illustrator 20.1.0, SVG Export Plug-In . SVG Version: 6.00 Build 0)  -->
<svg version="1.1" id="Слой_1" xmlns="http://www.w3.org/2000/svg" xmlns:xlink="http://www.w3.org/1999/xlink" x="0px" y="0px"
	 viewBox="0 0 100 100" style="enable-background:new 0 0 100 100;" xml:space="preserve">
<style type="text/css">
	.st0{fill:none;}
	.st1{fill:#3919AF;}
</style>
<rect class="st0" width="100" height="100"/>
<path class="st1" d="M45.5,25.8c2.1-2,5.2-2.7,8.1-2.8c3,0,6.1,0,9.1,0c0,3.2,0,6.4,0,9.6c-2,0-3.9,0-5.9,0
	c-1.2-0.1-2.5,0.9-2.7,2.1c0,2.1,0,4.3,0,6.4c2.9,0,5.8,0,8.6,0c-0.2,3.1-0.6,6.2-1.1,9.3c-2.5,0-5.1,0-7.6,0c0,9.2,0,18.3,0,27.5
	c-3.8,0-7.6,0-11.4,0c-0.1-9.2,0-18.3,0-27.5c-1.8,0-3.7,0-5.5,0c0-3.1,0-6.2,0-9.2c1.8,0,3.7,0,5.5,0c0.1-3-0.1-6,0.1-9
	C42.8,29.9,43.7,27.5,45.5,25.8z"/>
</svg>
