<?xml version="1.0" encoding="utf-8"?>
<!-- Generator: Adobe Illustrator 20.1.0, SVG Export Plug-In . SVG Version: 6.00 Build 0)  -->
<svg version="1.1" id="Слой_1" xmlns="http://www.w3.org/2000/svg" xmlns:xlink="http://www.w3.org/1999/xlink" x="0px" y="0px"
	 viewBox="0 0 100 100" style="enable-background:new 0 0 100 100;" xml:space="preserve">
<style type="text/css">
	.st0{fill:none;}
	.st1{fill:#3919AF;}
</style>
<rect class="st0" width="100" height="100"/>
<path class="st1" d="M60.6,25H39.4C31.5,25,25,31.5,25,39.4v21.4c0,7.9,6.5,14.4,14.4,14.4h21.2c7.9,0,14.4-6.5,14.4-14.4V39.4
	C75,31.5,68.5,25,60.6,25z M70.2,60.8c0,5.3-4.3,9.6-9.6,9.6H39.4c-5.3,0-9.6-4.3-9.6-9.6V39.4c0-5.3,4.3-9.6,9.6-9.6h21.2
	c5.3,0,9.6,4.3,9.6,9.6V60.8z M50,37.1C42.8,37.1,37,42.9,37,50c0,7.1,5.9,12.9,13.1,12.9c7.2,0,13.1-5.8,13.1-12.9
	C63.1,42.9,57.2,37.1,50,37.1z M50,58.2c-4.6,0-8.3-3.7-8.3-8.2c0-4.5,3.7-8.2,8.3-8.2c4.6,0,8.3,3.7,8.3,8.2
	C58.3,54.5,54.6,58.2,50,58.2z M66.4,36.6c0,1.7-1.4,3.1-3.1,3.1s-3.1-1.4-3.1-3.1c0-1.7,1.4-3.1,3.1-3.1S66.4,34.9,66.4,36.6z"/>
</svg>
