<?xml version="1.0" encoding="utf-8"?>
<!-- Generator: Adobe Illustrator 20.1.0, SVG Export Plug-In . SVG Version: 6.00 Build 0)  -->
<svg version="1.1" id="Слой_1" xmlns="http://www.w3.org/2000/svg" xmlns:xlink="http://www.w3.org/1999/xlink" x="0px" y="0px"
	 viewBox="0 0 100 100" style="enable-background:new 0 0 100 100;" xml:space="preserve">
<style type="text/css">
	.st0{fill:none;}
	.st1{fill:#3919AF;}
</style>
<rect x="1" class="st0" width="100" height="100"/>
<path class="st1" d="M70.7,29.4c0,0,4.6-1.8,4.2,2.6c-0.1,1.8-1.3,8.1-2.2,14.9l-3.1,20.2c0,0-0.3,3-2.6,3.5
	c-2.3,0.5-5.8-1.8-6.4-2.3c-0.5-0.4-9.6-6.2-12.8-9c-0.9-0.8-1.9-2.3,0.1-4.1l13.5-12.9c1.5-1.5,3.1-5.2-3.3-0.8l-18,12.2
	c0,0-2.1,1.3-5.9,0.1l-8.4-2.6c0,0-3.1-1.9,2.2-3.9C40.9,41.3,56.7,35.2,70.7,29.4z"/>
</svg>
