<?xml version="1.0" encoding="utf-8"?>
<!-- Generator: Adobe Illustrator 20.1.0, SVG Export Plug-In . SVG Version: 6.00 Build 0)  -->
<svg version="1.1" id="Слой_1" xmlns="http://www.w3.org/2000/svg" xmlns:xlink="http://www.w3.org/1999/xlink" x="0px" y="0px"
	 viewBox="0 0 100 100" style="enable-background:new 0 0 100 100;" xml:space="preserve">
<style type="text/css">
	.st0{fill:none;}
	.st1{fill:#3919AF;}
</style>
<rect class="st0" width="100" height="100"/>
<path class="st1" d="M69.5,26.8c-1.3-1.2-6.9-4.7-18.7-4.8c0,0-13.9-0.9-20.7,5.2c-3.8,3.7-5,9.2-5.2,16c0,0.2,0,0.5,0,0.7
	c-0.2,6.9-0.4,19,11.5,22.3c0,0,0,9.5-0.1,10.4c0,0.6,0.1,1,0.4,1.1c0.2,0.1,0.6-0.1,0.9-0.4c2-2,8.3-9.6,8.3-9.6
	c8.5,0.6,15.2-1.1,15.9-1.4c0.2-0.1,0.4-0.1,0.7-0.2c2.8-0.6,10.4-2.4,11.8-13.8C76.1,39.4,73.9,30.5,69.5,26.8z M64.4,57.5
	C64.4,57.5,64.4,57.5,64.4,57.5C64.4,57.5,64.4,57.5,64.4,57.5c-0.6,1.1-1.5,2.1-2.4,3c0,0,0,0,0,0c0,0,0,0,0,0
	c-0.8,0.7-1.6,1.1-2.4,1.2c-0.1,0-0.2,0-0.4,0c-0.4,0-0.7-0.1-1-0.2l0,0c-1.2-0.3-3.3-1.2-6.7-3.1c-2-1.1-3.9-2.3-5.7-3.7
	c-0.9-0.7-1.7-1.5-2.5-2.3l-0.1-0.1L43,52.2l-0.1-0.1c0,0,0,0-0.1-0.1l0,0c-0.8-0.8-1.6-1.7-2.3-2.5c-1.4-1.8-2.7-3.7-3.7-5.7
	c-1.9-3.4-2.8-5.5-3.1-6.7l0,0c-0.1-0.3-0.2-0.7-0.2-1c0-0.1,0-0.2,0-0.4c0.1-0.8,0.5-1.6,1.2-2.5c0,0,0,0,0,0c0,0,0,0,0,0
	c0.9-1,1.9-1.8,3-2.4c0,0,0,0,0,0c0,0,0,0,0,0c1.1-0.6,2.2-0.4,2.9,0.5c0,0,1.5,1.8,2.1,2.7c0.7,0.9,1.3,1.9,1.8,2.9
	c0.7,1.3,0.3,2.7-0.4,3.2l-1.5,1.2c-0.7,0.6-0.6,1.7-0.6,1.7s2.2,8.2,10.2,10.2c0,0,1.1,0.1,1.7-0.6l1.2-1.5
	c0.6-0.7,1.9-1.2,3.2-0.4c1,0.6,2,1.2,2.9,1.8c0.7,0.5,2,1.6,2.5,2c0.1,0.1,0.2,0.2,0.2,0.2C64.8,55.3,65,56.4,64.4,57.5z
	 M57.5,37.6c-1.5-1.7-3.7-2.6-6.6-2.9c-0.6,0-1.1-0.6-1.1-1.2c0-0.6,0.6-1.1,1.2-1.1c3.4,0.2,6.1,1.4,8.1,3.6l0,0
	c2,2.2,2.9,4.9,2.9,8c0,0.6-0.5,1.1-1.2,1.1c-0.6,0-1.1-0.5-1.1-1.2C59.8,41.4,59,39.3,57.5,37.6z M57.7,42.6c0,0.5-0.4,0.9-0.9,1
	c-0.5,0-0.9-0.4-1-0.9c-0.1-1.4-0.5-2.3-1-2.9c-0.6-0.6-1.5-1-2.8-1.1c-0.5,0-0.9-0.5-0.9-1c0-0.5,0.5-0.9,1-0.9
	c1.6,0.1,3,0.6,4,1.6C57.2,39.5,57.7,40.9,57.7,42.6z M65,46.5c-0.5,0-0.9-0.4-0.9-0.9c0-4.8-1.5-8.5-4.2-11.1
	c-2.8-2.7-6.2-4.1-10.3-4.1c-0.5,0-0.9-0.4-0.9-0.9c0-0.5,0.4-0.9,0.9-0.9c4.6,0,8.5,1.6,11.6,4.6c3.1,3.1,4.7,7.2,4.7,12.4
	C65.9,46.1,65.5,46.5,65,46.5z"/>
</svg>
