<?xml version="1.0" encoding="utf-8"?>
<!-- Generator: Adobe Illustrator 20.1.0, SVG Export Plug-In . SVG Version: 6.00 Build 0)  -->
<svg version="1.1" id="Слой_1" xmlns="http://www.w3.org/2000/svg" xmlns:xlink="http://www.w3.org/1999/xlink" x="0px" y="0px"
	 viewBox="0 0 100 100" style="enable-background:new 0 0 100 100;" xml:space="preserve">
<style type="text/css">
	.st0{fill:none;}
	.st1{fill:#3919AF;}
</style>
<rect class="st0" width="100" height="100"/>
<path class="st1" d="M50.5,23c7.3,0,14.1,2.8,19.3,8c5.1,5.2,8,12,8,19.3c0,15-12.2,27.3-27.3,27.3h0c-4.6,0-9-1.1-13-3.3L23,78
	l3.9-14.1c-2.4-4.1-3.6-8.8-3.6-13.6C23.2,35.2,35.5,23,50.5,23z M50.5,72.9L50.5,72.9c12.5,0,22.7-10.2,22.7-22.7
	c0-6.1-2.4-11.7-6.6-16c-4.3-4.3-10-6.6-16-6.6c-12.5,0-22.7,10.2-22.7,22.7c0,4.3,1.2,8.4,3.5,12.1l0.5,0.9l-2.3,8.4l8.6-2.2
	l0.8,0.5C42.4,71.8,46.4,72.9,50.5,72.9z M58.3,53.7c0.6,0.2,4,1.9,4.7,2.2c0.1,0.1,0.3,0.1,0.4,0.2c0.5,0.2,0.8,0.4,0.9,0.6
	c0.2,0.3,0.2,1.6-0.4,3.2c-0.6,1.6-3.3,3-4.6,3.2c-1.2,0.2-2.7,0.2-4.3-0.3c-1-0.3-2.3-0.7-3.9-1.4c-6.4-2.8-10.7-8.9-11.5-10.1
	c-0.1-0.1-0.1-0.1-0.1-0.2l0,0c-0.4-0.5-2.8-3.7-2.8-7c0-3.1,1.5-4.8,2.2-5.5c0-0.1,0.1-0.1,0.1-0.1c0.6-0.7,1.4-0.9,1.8-0.9
	s0.9,0,1.3,0c0,0,0.1,0,0.2,0c0.4,0,0.9,0,1.4,1.2c0.2,0.5,0.5,1.1,0.8,1.8c0.6,1.4,1.2,3,1.3,3.2c0.2,0.3,0.3,0.7,0.1,1.2
	c0,0.1-0.1,0.1-0.1,0.2c-0.2,0.3-0.3,0.6-0.6,0.9c-0.1,0.1-0.2,0.3-0.3,0.4c-0.2,0.3-0.5,0.6-0.7,0.8c-0.3,0.3-0.7,0.7-0.3,1.4
	c0.4,0.7,1.8,2.9,3.8,4.7c2.2,1.9,4.1,2.8,5,3.2c0.2,0.1,0.3,0.1,0.5,0.2c0.7,0.3,1.1,0.3,1.5-0.2s1.7-2,2.2-2.7
	C57.2,53.4,57.6,53.5,58.3,53.7z"/>
</svg>
