<svg width="54" height="57" viewBox="0 0 54 57" fill="none" xmlns="http://www.w3.org/2000/svg">
<path fill-rule="evenodd" clip-rule="evenodd" d="M27.166 56.5044C41.8903 56.5044 53.8267 43.8554 53.8267 28.2522C53.8267 12.649 41.8903 0 27.166 0C12.4418 0 0.505371 12.649 0.505371 28.2522C0.505371 43.8554 12.4418 56.5044 27.166 56.5044ZM13.8357 22.2581C13.8357 17.7739 17.2784 14.1261 21.5096 14.1261H32.8224C37.054 14.1261 40.4963 17.7743 40.4963 22.2581V34.3562C40.4963 38.84 37.054 42.4882 32.8224 42.4882H21.5096C17.278 42.4882 13.8357 38.84 13.8357 34.3562V22.2581ZM32.8224 39.797C35.6534 39.797 37.9567 37.3562 37.9567 34.3562V22.2581C37.9567 19.2582 35.6534 16.8173 32.8224 16.8173H21.5096C18.6787 16.8173 16.3753 19.2582 16.3753 22.2581V34.3562C16.3753 37.3562 18.6787 39.797 21.5096 39.797H32.8224ZM20.228 28.2552C20.228 24.2317 23.3502 20.9587 27.1872 20.9587C31.0241 20.9587 34.1464 24.2317 34.1464 28.2552C34.1464 32.2782 31.0241 35.5512 27.1872 35.5512C23.3498 35.5512 20.228 32.2782 20.228 28.2552ZM22.7629 28.2552C22.7629 30.7967 24.7474 32.8651 27.1872 32.8651C29.627 32.8651 31.6115 30.7972 31.6115 28.2552C31.6115 25.7132 29.6265 23.6453 27.1872 23.6453C24.7474 23.6453 22.7629 25.7132 22.7629 28.2552ZM34.271 22.3958C35.1753 22.3958 35.9084 21.6189 35.9084 20.6606C35.9084 19.7023 35.1753 18.9255 34.271 18.9255C33.3666 18.9255 32.6335 19.7023 32.6335 20.6606C32.6335 21.6189 33.3666 22.3958 34.271 22.3958Z" fill="#3919AF"/>
</svg>
