<svg width="54" height="57" viewBox="0 0 54 57" fill="none" xmlns="http://www.w3.org/2000/svg">
<path fill-rule="evenodd" clip-rule="evenodd" d="M27.3394 56.5044C42.0636 56.5044 54 43.8554 54 28.2522C54 12.649 42.0636 0 27.3394 0C12.6151 0 0.678711 12.649 0.678711 28.2522C0.678711 43.8554 12.6151 56.5044 27.3394 56.5044ZM37.877 16.3822C35.1334 13.4712 31.4845 11.8674 27.597 11.8659C19.5873 11.8659 13.0677 18.7737 13.0648 27.2646C13.0639 29.9788 13.733 32.6282 15.0044 34.9631L12.9426 42.9433L20.6463 40.8021C22.7688 42.0292 25.1589 42.6756 27.5907 42.6766H27.5965C35.6057 42.6766 42.1253 35.7678 42.1287 27.2774C42.1311 23.162 40.6211 19.2932 37.877 16.3822ZM27.5975 40.0755H27.5926C25.4251 40.0745 23.2993 39.4573 21.445 38.2914L21.0037 38.0139L16.432 39.2847L17.6521 34.5613L17.365 34.0768C16.1561 32.0388 15.5174 29.6838 15.5185 27.2651C15.5209 20.2078 20.9397 14.4665 27.6019 14.4665C30.828 14.4675 33.8606 15.801 36.141 18.2202C38.4216 20.6395 39.6765 23.8552 39.6756 27.2754C39.6731 34.3337 34.2548 40.0755 27.5975 40.0755ZM34.2224 30.4891C33.8592 30.2964 32.0742 29.3658 31.7411 29.2373C31.4085 29.1088 31.166 29.0446 30.924 29.43C30.6821 29.8154 29.9862 30.6818 29.7743 30.9387C29.5624 31.1956 29.3505 31.2275 28.9878 31.0348C28.9284 31.0033 28.8474 30.9661 28.7475 30.9201L28.7474 30.9201C28.236 30.685 27.2277 30.2216 26.0677 29.1248C24.9883 28.1042 24.2595 26.8443 24.0476 26.4594C23.8357 26.074 24.0247 25.8659 24.2066 25.6742C24.3156 25.5591 24.4408 25.3975 24.566 25.236C24.6283 25.1554 24.6908 25.0748 24.7511 25.0001C24.905 24.8097 24.9719 24.6651 25.0626 24.4692C25.0789 24.434 25.0959 24.3972 25.1144 24.3583C25.2356 24.1014 25.175 23.8768 25.0843 23.6841C25.0237 23.5554 24.6796 22.6677 24.3675 21.8628C24.2123 21.4626 24.0651 21.0828 23.9647 20.8271C23.7043 20.1647 23.4407 20.1664 23.229 20.1678C23.2009 20.168 23.1737 20.1682 23.1476 20.1667C22.9361 20.1554 22.6937 20.1534 22.4517 20.1534C22.2097 20.1534 21.8165 20.2495 21.4833 20.6349C21.4619 20.6597 21.4379 20.6869 21.4118 20.7164L21.4117 20.7166C21.0333 21.1447 20.2124 22.0733 20.2124 23.845C20.2124 25.7343 21.5071 27.5599 21.6939 27.8234L21.6953 27.8252C21.7071 27.842 21.7282 27.8741 21.7584 27.92C22.1918 28.5789 24.4928 32.077 27.8982 33.6354C28.7647 34.0321 29.4407 34.2685 29.9683 34.4457C30.8382 34.7387 31.6296 34.6975 32.2556 34.5984C32.9533 34.4879 34.4037 33.6678 34.7063 32.769C35.0089 31.8703 35.0089 31.0995 34.9182 30.9392C34.8451 30.8095 34.6734 30.7215 34.4191 30.5912L34.4191 30.5911C34.3581 30.5599 34.2925 30.5263 34.2224 30.4891Z" fill="#3919AF"/>
</svg>
