<svg width="54" height="57" viewBox="0 0 54 57" fill="none" xmlns="http://www.w3.org/2000/svg">
<path fill-rule="evenodd" clip-rule="evenodd" d="M26.6606 56.5044C41.3849 56.5044 53.3213 43.8554 53.3213 28.2522C53.3213 12.649 41.3849 0 26.6606 0C11.9364 0 0 12.649 0 28.2522C0 43.8554 11.9364 56.5044 26.6606 56.5044ZM38.3792 18.05C38.5847 15.575 36.1184 16.5941 36.1184 16.5941C34.2974 17.3929 32.4193 18.2047 30.521 19.0253C24.6349 21.5696 18.5538 24.1982 13.3736 26.7851C10.5647 27.877 12.2089 28.9689 12.2089 28.9689L16.662 30.4248C18.7172 31.0799 19.8134 30.352 19.8134 30.352L29.4046 23.4366C32.83 20.9617 32.0079 22.9999 31.1858 23.8734L23.9923 31.1527C22.8962 32.1718 23.4443 33.0453 23.9239 33.4821C25.283 34.7528 28.6264 37.0779 30.0861 38.0929C30.4659 38.357 30.7181 38.5325 30.7747 38.5776C31.1173 38.8688 32.967 40.179 34.2002 39.8878C35.4333 39.5967 35.5703 37.9224 35.5703 37.9224L37.2145 26.4939C37.4611 24.5099 37.744 22.6029 37.9699 21.0797C38.1833 19.6411 38.3459 18.545 38.3792 18.05Z" fill="#3919AF"/>
</svg>
