<svg id="Слой_1" data-name="Слой 1" xmlns="http://www.w3.org/2000/svg" viewBox="0 0 1562.83 507.42"><defs><style>.cls-1{fill:#fff;}</style></defs><title>logotype_full_white</title><path class="cls-1" d="M790,812.95l-29-50.29a32.83,32.83,0,0,0-28.36-16.37H280.34A32.83,32.83,0,0,0,252,762.66l-29,50.29a32.83,32.83,0,0,0,0,32.74l226.12,391.64a32.83,32.83,0,0,0,28.36,16.37h58.06a32.83,32.83,0,0,0,28.36-16.37L790,845.69A32.84,32.84,0,0,0,790,812.95Zm-19.5,21.48L544.35,1226.08a10.26,10.26,0,0,1-8.86,5.11H477.43a10.26,10.26,0,0,1-8.86-5.11L242.46,834.43a10.25,10.25,0,0,1,0-10.23l29-50.29a10.26,10.26,0,0,1,8.86-5.11H732.58a10.26,10.26,0,0,1,8.86,5.11l29,50.29A10.26,10.26,0,0,1,770.47,834.43Z" transform="translate(-218.58 -746.29)"/><path class="cls-1" d="M649.38,831.7a2.65,2.65,0,0,0-2.3-1.33H365.84a2.65,2.65,0,0,0-2.3,1.33l-30.83,53.4a2.65,2.65,0,0,0,0,2.65l38,65.74,43.15,74.73,59.53,103.1a2.65,2.65,0,0,0,2.3,1.33h61.65a2.65,2.65,0,0,0,2.3-1.33l9.26-16a2.65,2.65,0,0,0,0-2.65l-48.74-84.41h97.47a2.65,2.65,0,0,0,2.3-1.33L640,957.46a2.65,2.65,0,0,0-2.3-4H457L429,905.11H668.66a2.65,2.65,0,0,0,2.3-1.33l9.26-16a2.65,2.65,0,0,0,0-2.65Z" transform="translate(-218.58 -746.29)"/><polygon class="cls-1" points="668.84 295.77 690.5 295.77 690.5 261.68 733.8 261.68 733.8 244.31 690.5 244.31 690.5 219.58 739.55 219.58 739.55 202.21 668.84 202.21 668.84 295.77"/><path class="cls-1" d="M998.36,940a13.74,13.74,0,0,0-9.36-3.14,13.23,13.23,0,0,0-9.36,3.34,11.32,11.32,0,0,0,0,16.57,13.22,13.22,0,0,0,9.36,3.34,13,13,0,0,0,9.42-3.41,11.46,11.46,0,0,0,3.54-8.62A10.23,10.23,0,0,0,998.36,940Z" transform="translate(-218.58 -746.29)"/><rect class="cls-1" x="759.99" y="223.86" width="20.85" height="71.91"/><path class="cls-1" d="M1080.55,976.84q-9.09-7.75-25.53-7.75a63.42,63.42,0,0,0-16.84,2.27,45.12,45.12,0,0,0-14.17,6.41l7.48,14.57a29.88,29.88,0,0,1,9.42-4.88,36.28,36.28,0,0,1,11.29-1.8q8.42,0,12.5,3.74t4.08,10.42h-16.57q-11,0-17.78,2.74t-10,7.55a21.21,21.21,0,0,0,.07,22.32,21.92,21.92,0,0,0,9.22,7.82,33.24,33.24,0,0,0,14.43,2.87q9.49,0,15.5-3.61a18.25,18.25,0,0,0,6.41-6.43v9h19.51v-41Q1089.64,984.59,1080.55,976.84Zm-17.78,49.79a17.89,17.89,0,0,1-9.36,2.47q-5.48,0-8.62-2.34a7.49,7.49,0,0,1-3.14-6.35,7.67,7.67,0,0,1,2.74-6q2.74-2.41,10.09-2.41h14.3v7.35A14.18,14.18,0,0,1,1062.78,1026.62Z" transform="translate(-218.58 -746.29)"/><rect class="cls-1" x="897.12" y="196.6" width="20.85" height="99.17"/><path class="cls-1" d="M1215.2,973.56a42.9,42.9,0,0,0-38.69.27,35.55,35.55,0,0,0-13.7,13.1,36.55,36.55,0,0,0-5,19.18,35.91,35.91,0,0,0,5.08,19,35.46,35.46,0,0,0,14.37,13.16,50.87,50.87,0,0,0,38.83,1.8,32.33,32.33,0,0,0,12.43-8.62l-11.09-12a24.56,24.56,0,0,1-8,5.21,27.05,27.05,0,0,1-10.09,1.74,25,25,0,0,1-11.16-2.34,17,17,0,0,1-7.35-6.82,18.63,18.63,0,0,1-2.05-5.28h54.38q.13-1.33.27-2.87t.13-2.74q0-11.63-4.95-20A33.55,33.55,0,0,0,1215.2,973.56Zm-28.33,13.63a18.61,18.61,0,0,1,9.42-2.34,18.25,18.25,0,0,1,9.36,2.34,16.61,16.61,0,0,1,6.28,6.48,18.32,18.32,0,0,1,2,6.15h-35.4a18.71,18.71,0,0,1,2-6.08A16.33,16.33,0,0,1,1186.87,987.19Z" transform="translate(-218.58 -746.29)"/><path class="cls-1" d="M1313.71,972.49a33.5,33.5,0,0,0-15.3-3.41A34.2,34.2,0,0,0,1282,973a26.85,26.85,0,0,0-7.35,5.76v-8.56H1254.7v71.91h20.85v-35.55a23.86,23.86,0,0,1,2.21-11,14.38,14.38,0,0,1,6.15-6.35,18.82,18.82,0,0,1,8.89-2.07q6.95,0,10.76,4.14t3.81,12.83v38h20.85v-41.16q0-11-3.88-18A24.73,24.73,0,0,0,1313.71,972.49Z" transform="translate(-218.58 -746.29)"/><path class="cls-1" d="M1408.8,976.84q-9.09-7.75-25.53-7.75a63.42,63.42,0,0,0-16.84,2.27,45.12,45.12,0,0,0-14.17,6.41l7.48,14.57a29.88,29.88,0,0,1,9.42-4.88,36.28,36.28,0,0,1,11.29-1.8q8.42,0,12.5,3.74t4.08,10.42h-16.57q-11,0-17.78,2.74t-10,7.55a21.21,21.21,0,0,0,.07,22.32,21.92,21.92,0,0,0,9.22,7.82,33.24,33.24,0,0,0,14.43,2.87q9.49,0,15.5-3.61a18.25,18.25,0,0,0,6.42-6.43v9h19.51v-41Q1417.89,984.59,1408.8,976.84ZM1391,1026.62a17.9,17.9,0,0,1-9.36,2.47q-5.48,0-8.62-2.34a7.49,7.49,0,0,1-3.14-6.35,7.67,7.67,0,0,1,2.74-6q2.74-2.41,10.09-2.41H1397v7.35A14.17,14.17,0,0,1,1391,1026.62Z" transform="translate(-218.58 -746.29)"/><path class="cls-1" d="M1529.62,1009a42.8,42.8,0,0,0-9.09-3q-4.95-1.07-9.89-1.94a61.35,61.35,0,0,1-9.09-2.27,16,16,0,0,1-6.62-4,9.77,9.77,0,0,1-2.47-7,11.46,11.46,0,0,1,4.74-9.36q4.74-3.74,14.9-3.74a42.68,42.68,0,0,1,11.09,1.47,28.45,28.45,0,0,1,9.89,4.81l3.07-5.35a33.11,33.11,0,0,0-10.76-4.94,48.23,48.23,0,0,0-13.16-1.87q-8.82,0-14.7,2.61a20.34,20.34,0,0,0-8.82,6.88,16.6,16.6,0,0,0-2.94,9.62q0,5.88,2.47,9.42a16.82,16.82,0,0,0,6.62,5.55,40.34,40.34,0,0,0,9.09,3.07q4.94,1.07,9.89,1.94a68.33,68.33,0,0,1,9.09,2.21,16.24,16.24,0,0,1,6.62,3.81,9.13,9.13,0,0,1,2.47,6.75,11.3,11.3,0,0,1-4.81,9.49q-4.81,3.61-15.77,3.61a41.23,41.23,0,0,1-14.43-2.47,34.42,34.42,0,0,1-10.69-5.95l-3.07,5.35q4.14,3.88,11.69,6.41a50.58,50.58,0,0,0,16.24,2.54,41.61,41.61,0,0,0,15.1-2.41,20.34,20.34,0,0,0,9.29-6.68,16.48,16.48,0,0,0,3.14-10q0-5.74-2.47-9.16A16.77,16.77,0,0,0,1529.62,1009Z" transform="translate(-218.58 -746.29)"/><path class="cls-1" d="M1563.83,1031.23a5.5,5.5,0,0,0-3.94,1.6,5.32,5.32,0,0,0-1.67,4,5.54,5.54,0,0,0,1.67,4.08,5.49,5.49,0,0,0,7.89,0,5.55,5.55,0,0,0,1.67-4.08,5.33,5.33,0,0,0-1.67-4A5.51,5.51,0,0,0,1563.83,1031.23Z" transform="translate(-218.58 -746.29)"/><path class="cls-1" d="M1605,987.55V972.29h-6.42v69.77h6.68V1005.7q0-13,6.55-20.25t18.18-7.28a5,5,0,0,1,.8.07,4.77,4.77,0,0,0,.8.07v-6.55q-10.42,0-17.37,4.54A24.31,24.31,0,0,0,1605,987.55Z" transform="translate(-218.58 -746.29)"/><path class="cls-1" d="M1656.32,1031.23a5.5,5.5,0,0,0-3.94,1.6,5.32,5.32,0,0,0-1.67,4,5.54,5.54,0,0,0,1.67,4.08,5.49,5.49,0,0,0,7.89,0,5.55,5.55,0,0,0,1.67-4.08,5.33,5.33,0,0,0-1.67-4A5.51,5.51,0,0,0,1656.32,1031.23Z" transform="translate(-218.58 -746.29)"/><path class="cls-1" d="M1734,976.3a35.24,35.24,0,0,0-17.91-4.54,34.87,34.87,0,0,0-17.84,4.54,33.82,33.82,0,0,0-12.43,12.5,38.79,38.79,0,0,0,0,36.69,33.64,33.64,0,0,0,12.43,12.56,34.84,34.84,0,0,0,17.84,4.54A35.21,35.21,0,0,0,1734,1038a33,33,0,0,0,12.43-12.56,39.29,39.29,0,0,0,0-36.69A33.17,33.17,0,0,0,1734,976.3Zm6.55,46.24a25.79,25.79,0,0,1-10,10.36,28.5,28.5,0,0,1-14.43,3.68,28.12,28.12,0,0,1-14.37-3.68,26.37,26.37,0,0,1-10-10.36,34.12,34.12,0,0,1,0-30.81,26.52,26.52,0,0,1,10-10.29,28.15,28.15,0,0,1,14.37-3.68,28.52,28.52,0,0,1,14.43,3.68,25.93,25.93,0,0,1,10,10.29,34.69,34.69,0,0,1,0,30.81Z" transform="translate(-218.58 -746.29)"/><path class="cls-1" d="M1779.75,1032.84a5.65,5.65,0,0,0-7.89,0,5.32,5.32,0,0,0-1.67,4,5.54,5.54,0,0,0,1.67,4.08,5.49,5.49,0,0,0,7.89,0,5.55,5.55,0,0,0,1.67-4.08A5.33,5.33,0,0,0,1779.75,1032.84Z" transform="translate(-218.58 -746.29)"/></svg>